# xmcd
#
# Track frame offsets:
#	150
#	17210
#	31822
#	45517
#	56975
#	72900
#	90562
#	109537
#	123230
#	134915
#	149372
#	165235
#	179580
#	194235
#	210430
#	225272
#	239410
#	254195
#	266787
#	285332
#
# Disc length: 3970 seconds
#
# Revision: 0
# Processed by: cddbd v1.5.2PL0 Copyright (c) Steve Scherf et al.
# Submitted via: EasyCDDAExtractor 10.5.1.1
#
DISCID=2c0f8014
DTITLE=Eino Grön - Soi maninki hiljainen
DYEAR=1998
DGENRE=Pop
TTITLE0=Soi maninki hiljainen
TTITLE1=Yön kyyneleet
TTITLE2=Viimeisestä illasta
TTITLE3=Kyläkahvilan edessä
TTITLE4=Kuoleman paikka
TTITLE5=Heijastus
TTITLE6=Ääretön aava ympärilläin
TTITLE7=Mustarastas
TTITLE8=Rose-Marie
TTITLE9=Elegia
TTITLE10=Muistojen polku
TTITLE11=Sörkkään terveiset vie
TTITLE12=Arkipäivän tango
TTITLE13=Auringon noustessa
TTITLE14=Lyhty sateessa
TTITLE15=Hiljainen laulu
TTITLE16=Tein lasinkuultavan laulun
TTITLE17=Erotessa
TTITLE18=Laulajan ystävä
TTITLE19=Sininen huvimaja
EXTD=
EXTT0=
EXTT1=
EXTT2=
EXTT3=
EXTT4=
EXTT5=
EXTT6=
EXTT7=
EXTT8=
EXTT9=
EXTT10=
EXTT11=
EXTT12=
EXTT13=
EXTT14=
EXTT15=
EXTT16=
EXTT17=
EXTT18=
EXTT19=
PLAYORDER=
